<?xml version="1.0" encoding="UTF-8"?>
<svg width="32px" height="32px" viewBox="0 0 32 32" version="1.1" xmlns="http://www.w3.org/2000/svg" xmlns:xlink="http://www.w3.org/1999/xlink">
    <!-- Generator: Sketch 41 (35326) - http://www.bohemiancoding.com/sketch -->
    <title>E</title>
    <desc>Created with Sketch.</desc>
    <defs>
        <circle id="path-1" cx="5" cy="5" r="5"></circle>
        <mask id="mask-2" maskContentUnits="userSpaceOnUse" maskUnits="objectBoundingBox" x="0" y="0" width="10" height="10" fill="white">
            <use xlink:href="#path-1"></use>
        </mask>
        <circle id="path-3" cx="5" cy="27" r="5"></circle>
        <mask id="mask-4" maskContentUnits="userSpaceOnUse" maskUnits="objectBoundingBox" x="0" y="0" width="10" height="10" fill="white">
            <use xlink:href="#path-3"></use>
        </mask>
        <circle id="path-5" cx="19" cy="16" r="5"></circle>
        <mask id="mask-6" maskContentUnits="userSpaceOnUse" maskUnits="objectBoundingBox" x="0" y="0" width="10" height="10" fill="white">
            <use xlink:href="#path-5"></use>
        </mask>
        <circle id="path-7" cx="27" cy="27" r="5"></circle>
        <mask id="mask-8" maskContentUnits="userSpaceOnUse" maskUnits="objectBoundingBox" x="0" y="0" width="10" height="10" fill="white">
            <use xlink:href="#path-7"></use>
        </mask>
        <circle id="path-9" cx="27" cy="5" r="5"></circle>
        <mask id="mask-10" maskContentUnits="userSpaceOnUse" maskUnits="objectBoundingBox" x="0" y="0" width="10" height="10" fill="white">
            <use xlink:href="#path-9"></use>
        </mask>
    </defs>
    <g id="00-inicio-registro" stroke="none" stroke-width="1" fill="none" fill-rule="evenodd">
        <g id="00-splash" transform="translate(-105.000000, -288.000000)">
            <g id="E" transform="translate(105.000000, 288.000000)">
                <g id="cintas">
                    <polygon id="cintas-E-1" fill="#0086FF" points="5 2 27 2 27 0 5 0"></polygon>
                    <polygon id="cintas-E-2" fill="#0086FF" points="5 32 27 32 27 30 5 30"></polygon>
                    <path d="M18.3500061,20 L27.6000061,23" id="cintas-E-6" stroke="#0086FF" stroke-width="2" stroke-linecap="square"></path>
                    <path d="M18.3500061,9 L27.6000061,12" id="cintas-E-5" stroke="#0086FF" stroke-width="2" stroke-linecap="square" transform="translate(22.975006, 10.500000) scale(1, -1) translate(-22.975006, -10.500000) "></path>
                    <polygon id="cintas-E-3" fill="#0086FF" points="0 27 2 27 2 5 0 5"></polygon>
                    <polygon id="cintas-E-4" fill="#0086FF" points="8 27 10 27 10 5 8 5"></polygon>
                </g>
                <g id="poleas" stroke="#00CFFF" stroke-width="4">
                    <use id="Oval-E-1" mask="url(#mask-2)" xlink:href="#path-1"></use>
                    <use id="Oval-E-2" mask="url(#mask-4)" xlink:href="#path-3"></use>
                    <use id="Oval-E-3" mask="url(#mask-6)" xlink:href="#path-5"></use>
                    <use id="Oval-E-5" mask="url(#mask-8)" xlink:href="#path-7"></use>
                    <use id="Oval-E-4" mask="url(#mask-10)" xlink:href="#path-9"></use>
                </g>
            </g>
        </g>
    </g>
</svg>