<?xml version="1.0" encoding="UTF-8"?>
<svg width="32px" height="32px" viewBox="0 0 32 32" version="1.1" xmlns="http://www.w3.org/2000/svg" xmlns:xlink="http://www.w3.org/1999/xlink">
    <!-- Generator: Sketch 41 (35326) - http://www.bohemiancoding.com/sketch -->
    <title>Z</title>
    <desc>Created with Sketch.</desc>
    <defs>
        <circle id="path-1" cx="5" cy="5" r="5"></circle>
        <mask id="mask-2" maskContentUnits="userSpaceOnUse" maskUnits="objectBoundingBox" x="0" y="0" width="10" height="10" fill="white">
            <use xlink:href="#path-1"></use>
        </mask>
        <circle id="path-3" cx="5" cy="27" r="5"></circle>
        <mask id="mask-4" maskContentUnits="userSpaceOnUse" maskUnits="objectBoundingBox" x="0" y="0" width="10" height="10" fill="white">
            <use xlink:href="#path-3"></use>
        </mask>
        <circle id="path-5" cx="27" cy="27" r="5"></circle>
        <mask id="mask-6" maskContentUnits="userSpaceOnUse" maskUnits="objectBoundingBox" x="0" y="0" width="10" height="10" fill="white">
            <use xlink:href="#path-5"></use>
        </mask>
        <circle id="path-7" cx="27" cy="5" r="5"></circle>
        <mask id="mask-8" maskContentUnits="userSpaceOnUse" maskUnits="objectBoundingBox" x="0" y="0" width="10" height="10" fill="white">
            <use xlink:href="#path-7"></use>
        </mask>
    </defs>
    <g id="00-inicio-registro" stroke="none" stroke-width="1" fill="none" fill-rule="evenodd">
        <g id="00-splash" transform="translate(-153.000000, -288.000000)">
            <g id="Z" transform="translate(153.000000, 288.000000)">
                <g id="cintas" transform="translate(3.000000, 0.000000)">
                    <polygon id="cintas-Z-1" fill="#0086FF" points="2 2 24 2 24 0 2 0"></polygon>
                    <polygon id="cintas-Z-2" fill="#0086FF" points="2 10 24 10 24 8 2 8"></polygon>
                    <polygon id="cintas-Z-3" fill="#0086FF" points="2 24 24 24 24 22 2 22"></polygon>
                    <polygon id="cintas-Z-4" fill="#0086FF" points="2 32 24 32 24 30 2 30"></polygon>
                    <path d="M0.678148674,8.88458807 L25.2696496,23.1403883" id="cintas-Z-5" stroke="#0086FF" stroke-width="2" stroke-linecap="square" transform="translate(12.973899, 16.012488) scale(1, -1) translate(-12.973899, -16.012488) "></path>
                </g>
                <g id="poleas" stroke="#00CFFF" stroke-width="4">
                    <use id="Oval-Z-1" mask="url(#mask-2)" xlink:href="#path-1"></use>
                    <use id="Oval-Z-2" mask="url(#mask-4)" xlink:href="#path-3"></use>
                    <use id="Oval-Z-3" mask="url(#mask-6)" xlink:href="#path-5"></use>
                    <use id="Oval-Z-4" mask="url(#mask-8)" xlink:href="#path-7"></use>
                </g>
            </g>
        </g>
    </g>
</svg>